<?xml version="1.0" encoding="UTF-8" standalone="no"?>
<!-- Created with Inkscape (http://www.inkscape.org/) -->

<svg
   xmlns:dc="http://purl.org/dc/elements/1.1/"
   xmlns:cc="http://creativecommons.org/ns#"
   xmlns:rdf="http://www.w3.org/1999/02/22-rdf-syntax-ns#"
   xmlns:svg="http://www.w3.org/2000/svg"
   xmlns="http://www.w3.org/2000/svg"
   xmlns:sodipodi="http://sodipodi.sourceforge.net/DTD/sodipodi-0.dtd"
   xmlns:inkscape="http://www.inkscape.org/namespaces/inkscape"
   width="1002.8571"
   height="311.42862"
   viewBox="0 0 265.33926 82.398824"
   version="1.1"
   id="svg8"
   inkscape:version="0.92.4 (e05b578f1, 2019-02-26, custom)"
   sodipodi:docname="json-scada.svg">
  <defs
     id="defs2">
    <pattern
       y="0"
       x="0"
       height="6"
       width="6"
       patternUnits="userSpaceOnUse"
       id="EMFhbasepattern" />
  </defs>
  <sodipodi:namedview
     id="base"
     pagecolor="#ffffff"
     bordercolor="#666666"
     borderopacity="1.0"
     inkscape:pageopacity="0.0"
     inkscape:pageshadow="2"
     inkscape:zoom="0.35"
     inkscape:cx="-67.142857"
     inkscape:cy="187.14287"
     inkscape:document-units="mm"
     inkscape:current-layer="layer1"
     showgrid="false"
     units="px"
     inkscape:window-width="2560"
     inkscape:window-height="1057"
     inkscape:window-x="-8"
     inkscape:window-y="-8"
     inkscape:window-maximized="1"
     fit-margin-top="0"
     fit-margin-left="0"
     fit-margin-right="0"
     fit-margin-bottom="0" />
  <metadata
     id="metadata5">
    <rdf:RDF>
      <cc:Work
         rdf:about="">
        <dc:format>image/svg+xml</dc:format>
        <dc:type
           rdf:resource="http://purl.org/dc/dcmitype/StillImage" />
        <dc:title></dc:title>
      </cc:Work>
    </rdf:RDF>
  </metadata>
  <g
     inkscape:label="Camada 1"
     inkscape:groupmode="layer"
     id="layer1"
     transform="translate(-0.75595242,-122.37498)">
    <path
       style="fill:#5c6976;stroke-width:0.14723274;fill-opacity:1"
       d="M 41.955362,122.37498 H 224.89581 c 22.82447,0 41.19941,18.37493 41.19941,41.19941 0,22.82447 -18.37494,41.19941 -41.19941,41.19941 H 41.955362 c -22.824473,0 -41.19940958,-18.37494 -41.19940958,-41.19941 0,-22.82448 18.37493658,-41.19941 41.19940958,-41.19941 z"
       id="rect29" />
    <g
       aria-label="{json:scada}"
       style="font-style:normal;font-variant:normal;font-weight:bold;font-stretch:normal;font-size:36.76778412px;line-height:125%;font-family:Consolas;-inkscape-font-specification:'Consolas, Bold';font-variant-ligatures:normal;font-variant-caps:normal;font-variant-numeric:normal;font-feature-settings:normal;text-align:start;letter-spacing:0px;word-spacing:0px;writing-mode:lr-tb;text-anchor:start;fill:#e9ddaf;fill-opacity:1;stroke:none;stroke-width:0.49352795"
       id="text17"
       transform="matrix(1.0381896,0,0,1.2244103,-3.9795872,-36.908055)">
      <path
         d="m 25.232712,180.91176 q -3.716275,0 -5.547483,-1.7953 -1.831208,-1.77735 -1.831208,-5.65521 v -4.56006 q 0,-1.84916 -0.825839,-2.78272 -0.825839,-0.93356 -2.746812,-0.93356 h -1.13104 v -3.39312 h 1.13104 q 0.969463,0 1.651678,-0.19748 0.682214,-0.21544 1.113087,-0.64631 0.430872,-0.43087 0.610403,-1.09513 0.197483,-0.68222 0.197483,-1.61578 v -3.15973 q 0,-1.84916 0.412919,-3.24949 0.430873,-1.40034 1.328524,-2.3339 0.897651,-0.93355 2.280033,-1.40033 1.400336,-0.48473 3.357215,-0.48473 h 1.508053 v 3.37516 h -1.13104 q -0.861745,0 -1.561912,0.21544 -0.682215,0.19748 -1.1849,0.66426 -0.502684,0.46678 -0.77198,1.23876 -0.269295,0.75403 -0.269295,1.88507 v 3.14178 q 0,1.34647 -0.233389,2.29798 -0.215436,0.95151 -0.682215,1.59782 -0.466778,0.62836 -1.184899,0.98742 -0.718121,0.3411 -1.687584,0.48473 1.920973,0.21543 2.85453,1.50805 0.933557,1.27467 0.933557,3.93171 v 4.56007 q 0,1.16695 0.269295,1.93893 0.269296,0.77198 0.77198,1.23875 0.502685,0.46678 1.1849,0.66427 0.700167,0.19748 1.561912,0.19748 h 1.13104 v 3.37517 z"
         style="font-style:normal;font-variant:normal;font-weight:bold;font-stretch:normal;font-size:36.76778412px;font-family:Consolas;-inkscape-font-specification:'Consolas, Bold';font-variant-ligatures:normal;font-variant-caps:normal;font-variant-numeric:normal;font-feature-settings:normal;text-align:start;writing-mode:lr-tb;text-anchor:start;fill:#e9ddaf;stroke-width:0.49352795"
         id="path31"
         inkscape:connector-curvature="0" />
      <path
         d="m 46.524992,173.26377 q 0,2.04665 -0.610403,3.5547 -0.592449,1.52601 -1.723489,2.51342 -1.113088,1.00537 -2.692953,1.4901 -1.561913,0.50269 -3.500839,0.50269 -1.579866,0 -2.944295,-0.2693 -1.36443,-0.26929 -2.244128,-0.64631 v -4.02147 q 0.502685,0.26929 1.13104,0.52063 0.646309,0.2693 1.328524,0.46678 0.700168,0.21544 1.418288,0.32316 0.718121,0.12567 1.418289,0.12567 1.992785,0 2.980201,-1.149 0.987416,-1.14899 0.987416,-3.37516 v -14.34447 h -8.671308 v -3.41107 h 13.123657 z m 0.359061,-22.71057 q 0,0.59245 -0.215437,1.11309 -0.215436,0.52064 -0.610402,0.9156 -0.377014,0.37702 -0.915604,0.61041 -0.520638,0.21543 -1.131041,0.21543 -0.610402,0 -1.13104,-0.21543 -0.520637,-0.23339 -0.915604,-0.61041 -0.377013,-0.39496 -0.59245,-0.9156 -0.215436,-0.52064 -0.215436,-1.11309 0,-0.59245 0.215436,-1.11309 0.215437,-0.52063 0.59245,-0.9156 0.394967,-0.39497 0.915604,-0.6104 0.520638,-0.23339 1.13104,-0.23339 0.610403,0 1.131041,0.23339 0.53859,0.21543 0.915604,0.6104 0.394966,0.39497 0.610402,0.9156 0.215437,0.52064 0.215437,1.11309 z"
         style="font-style:normal;font-variant:normal;font-weight:bold;font-stretch:normal;font-size:36.76778412px;font-family:Consolas;-inkscape-font-specification:'Consolas, Bold';font-variant-ligatures:normal;font-variant-caps:normal;font-variant-numeric:normal;font-feature-settings:normal;text-align:start;writing-mode:lr-tb;text-anchor:start;fill:#e9ddaf;stroke-width:0.49352795"
         id="path33"
         inkscape:connector-curvature="0" />
      <path
         d="m 68.463581,168.41646 q 0,1.56191 -0.700168,2.675 -0.682214,1.09513 -1.831208,1.7953 -1.13104,0.68221 -2.585234,0.98741 -1.436242,0.32316 -2.944296,0.32316 -2.010738,0 -3.62651,-0.19749 -1.615771,-0.17953 -3.052013,-0.53859 v -3.94966 q 1.687584,0.70017 3.357215,1.02332 1.687584,0.3052 3.177684,0.3052 1.72349,0 2.567282,-0.53859 0.861745,-0.55654 0.861745,-1.43624 0,-0.41292 -0.17953,-0.75403 -0.17953,-0.3411 -0.682215,-0.6463 -0.484732,-0.32316 -1.382383,-0.64631 -0.897651,-0.34111 -2.351845,-0.75403 -1.346477,-0.37701 -2.369799,-0.84379 -1.005369,-0.48473 -1.669631,-1.13104 -0.664261,-0.64631 -1.005369,-1.4901 -0.323154,-0.86175 -0.323154,-2.01074 0,-1.11309 0.502685,-2.1005 0.502684,-0.98742 1.4901,-1.72349 1.005369,-0.75403 2.49547,-1.1849 1.490101,-0.43088 3.482886,-0.43088 1.72349,0 3.052013,0.17953 1.328524,0.17953 2.351846,0.39497 v 3.57265 q -1.561913,-0.50268 -2.944296,-0.70017 -1.364429,-0.21543 -2.710906,-0.21543 -1.346476,0 -2.172315,0.48473 -0.807886,0.48473 -0.807886,1.34648 0,0.41292 0.161577,0.73607 0.161578,0.32315 0.628356,0.62836 0.484732,0.3052 1.328524,0.6463 0.861744,0.32316 2.26208,0.71812 1.579866,0.44883 2.657047,0.96947 1.077181,0.50268 1.72349,1.14899 0.664261,0.64631 0.95151,1.47215 0.287248,0.82584 0.287248,1.88507 z"
         style="font-style:normal;font-variant:normal;font-weight:bold;font-stretch:normal;font-size:36.76778412px;font-family:Consolas;-inkscape-font-specification:'Consolas, Bold';font-variant-ligatures:normal;font-variant-caps:normal;font-variant-numeric:normal;font-feature-settings:normal;text-align:start;writing-mode:lr-tb;text-anchor:start;fill:#e9ddaf;stroke-width:0.49352795"
         id="path35"
         inkscape:connector-curvature="0" />
      <path
         d="m 90.096967,164.52065 q 0,2.15436 -0.610403,3.94966 -0.610402,1.77735 -1.759396,3.05202 -1.148993,1.27466 -2.818624,1.97483 -1.669631,0.70017 -3.80604,0.70017 -2.028691,0 -3.62651,-0.59245 -1.597819,-0.59245 -2.710906,-1.7594 -1.113087,-1.1849 -1.705537,-2.94429 -0.592449,-1.77735 -0.592449,-4.1292 0,-2.17231 0.610402,-3.94966 0.628356,-1.77735 1.777349,-3.03406 1.166947,-1.25671 2.836577,-1.93893 1.669631,-0.70017 3.770134,-0.70017 2.046645,0 3.644463,0.61041 1.597819,0.59245 2.710906,1.77735 1.113088,1.1849 1.687584,2.94429 0.59245,1.74144 0.59245,4.03943 z m -4.560067,0.10772 q 0,-2.83658 -1.077181,-4.25487 -1.059228,-1.43624 -3.141779,-1.43624 -1.148993,0 -1.956879,0.44883 -0.807886,0.44882 -1.328523,1.23876 -0.520638,0.77198 -0.77198,1.81325 -0.233389,1.04128 -0.233389,2.22617 0,2.85453 1.148993,4.30873 1.148993,1.43624 3.141778,1.43624 1.095135,0 1.90302,-0.43087 0.807886,-0.44883 1.310571,-1.22081 0.502684,-0.78993 0.754027,-1.84916 0.251342,-1.05923 0.251342,-2.28003 z"
         style="font-style:normal;font-variant:normal;font-weight:bold;font-stretch:normal;font-size:36.76778412px;font-family:Consolas;-inkscape-font-specification:'Consolas, Bold';font-variant-ligatures:normal;font-variant-caps:normal;font-variant-numeric:normal;font-feature-settings:normal;text-align:start;writing-mode:lr-tb;text-anchor:start;fill:#e9ddaf;stroke-width:0.49352795"
         id="path37"
         inkscape:connector-curvature="0" />
      <path
         d="m 104.80049,173.78441 v -11.8849 q 0,-2.99815 -2.22617,-2.99815 -1.11309,0 -2.13641,0.89765 -1.005372,0.89765 -2.136412,2.44161 v 11.54379 h -4.380537 v -18.24027 h 3.788087 l 0.107718,2.69295 q 0.556544,-0.70016 1.148994,-1.27466 0.610402,-0.5745 1.31057,-0.96946 0.70017,-0.41292 1.50805,-0.62836 0.80789,-0.21544 1.81326,-0.21544 1.40033,0 2.44161,0.46678 1.04127,0.44883 1.74144,1.29262 0.70017,0.82584 1.04128,2.01074 0.35906,1.16694 0.35906,2.62114 v 12.24396 z"
         style="font-style:normal;font-variant:normal;font-weight:bold;font-stretch:normal;font-size:36.76778412px;font-family:Consolas;-inkscape-font-specification:'Consolas, Bold';font-variant-ligatures:normal;font-variant-caps:normal;font-variant-numeric:normal;font-feature-settings:normal;text-align:start;writing-mode:lr-tb;text-anchor:start;fill:#e9ddaf;stroke-width:0.49352795"
         id="path39"
         inkscape:connector-curvature="0" />
      <path
         d="m 121.78405,155.36461 q 0.68221,0 1.27466,0.25134 0.59245,0.25135 1.02332,0.70017 0.43088,0.43087 0.68222,1.02332 0.25134,0.59245 0.25134,1.25671 0,0.68222 -0.25134,1.27467 -0.25134,0.59245 -0.68222,1.02332 -0.43087,0.43087 -1.02332,0.68222 -0.59245,0.25134 -1.27466,0.25134 -0.68222,0 -1.27467,-0.25134 -0.57449,-0.25135 -1.02332,-0.68222 -0.43087,-0.43087 -0.68221,-1.02332 -0.25135,-0.59245 -0.25135,-1.27467 0,-0.66426 0.25135,-1.25671 0.25134,-0.59245 0.68221,-1.02332 0.44883,-0.44882 1.02332,-0.70017 0.59245,-0.25134 1.27467,-0.25134 z m 0,12.36963 q 0.68221,0 1.27466,0.25134 0.59245,0.25135 1.02332,0.68222 0.43088,0.43087 0.68222,1.02332 0.25134,0.59245 0.25134,1.25671 0,0.68222 -0.25134,1.27467 -0.25134,0.59245 -0.68222,1.04127 -0.43087,0.43087 -1.02332,0.68222 -0.59245,0.25134 -1.27466,0.25134 -0.68222,0 -1.27467,-0.25134 -0.57449,-0.25135 -1.02332,-0.68222 -0.43087,-0.44882 -0.68221,-1.04127 -0.25135,-0.59245 -0.25135,-1.27467 0,-0.66426 0.25135,-1.25671 0.25134,-0.59245 0.68221,-1.02332 0.44883,-0.43087 1.02332,-0.68222 0.59245,-0.25134 1.27467,-0.25134 z"
         style="font-style:normal;font-variant:normal;font-weight:bold;font-stretch:normal;font-size:36.76778412px;font-family:Consolas;-inkscape-font-specification:'Consolas, Bold';font-variant-ligatures:normal;font-variant-caps:normal;font-variant-numeric:normal;font-feature-settings:normal;text-align:start;writing-mode:lr-tb;text-anchor:start;fill:#e9ddaf;stroke-width:0.49352795"
         id="path41"
         inkscape:connector-curvature="0" />
      <path
         d="m 149.4676,168.41646 q 0,1.56191 -0.70017,2.675 -0.68221,1.09513 -1.83121,1.7953 -1.13104,0.68221 -2.58523,0.98741 -1.43624,0.32316 -2.9443,0.32316 -2.01074,0 -3.62651,-0.19749 -1.61577,-0.17953 -3.05201,-0.53859 v -3.94966 q 1.68758,0.70017 3.35721,1.02332 1.68759,0.3052 3.17769,0.3052 1.72349,0 2.56728,-0.53859 0.86174,-0.55654 0.86174,-1.43624 0,-0.41292 -0.17953,-0.75403 -0.17953,-0.3411 -0.68221,-0.6463 -0.48473,-0.32316 -1.38238,-0.64631 -0.89765,-0.34111 -2.35185,-0.75403 -1.34647,-0.37701 -2.3698,-0.84379 -1.00537,-0.48473 -1.66963,-1.13104 -0.66426,-0.64631 -1.00537,-1.4901 -0.32315,-0.86175 -0.32315,-2.01074 0,-1.11309 0.50268,-2.1005 0.50269,-0.98742 1.4901,-1.72349 1.00537,-0.75403 2.49547,-1.1849 1.4901,-0.43088 3.48289,-0.43088 1.72349,0 3.05201,0.17953 1.32853,0.17953 2.35185,0.39497 v 3.57265 q -1.56191,-0.50268 -2.9443,-0.70017 -1.36443,-0.21543 -2.7109,-0.21543 -1.34648,0 -2.17232,0.48473 -0.80788,0.48473 -0.80788,1.34648 0,0.41292 0.16157,0.73607 0.16158,0.32315 0.62836,0.62836 0.48473,0.3052 1.32852,0.6463 0.86175,0.32316 2.26208,0.71812 1.57987,0.44883 2.65705,0.96947 1.07718,0.50268 1.72349,1.14899 0.66426,0.64631 0.95151,1.47215 0.28725,0.82584 0.28725,1.88507 z"
         style="font-style:normal;font-variant:normal;font-weight:bold;font-stretch:normal;font-size:36.76778412px;font-family:Consolas;-inkscape-font-specification:'Consolas, Bold';font-variant-ligatures:normal;font-variant-caps:normal;font-variant-numeric:normal;font-feature-settings:normal;text-align:start;writing-mode:lr-tb;text-anchor:start;fill:#e9ddaf;stroke-width:0.49352795"
         id="path43"
         inkscape:connector-curvature="0" />
      <path
         d="m 169.43136,173.08424 q -1.29262,0.52064 -2.675,0.77198 -1.38239,0.25134 -2.89044,0.25134 -2.17231,0 -3.8958,-0.59245 -1.72349,-0.59245 -2.92635,-1.75939 -1.20285,-1.16695 -1.84916,-2.89044 -0.62835,-1.72349 -0.62835,-3.98557 0,-2.19027 0.68221,-3.96762 0.70017,-1.77735 1.95688,-3.03406 1.25671,-1.25671 3.01611,-1.93892 1.77735,-0.68222 3.94966,-0.68222 1.77735,0 2.9802,0.19749 1.22081,0.17953 2.19027,0.46677 v 4.25487 q -1.11309,-0.55654 -2.42366,-0.86175 -1.29261,-0.3052 -2.45956,-0.3052 -1.2208,0 -2.19027,0.41292 -0.96946,0.41292 -1.63372,1.149 -0.66426,0.73607 -1.02332,1.7953 -0.34111,1.04127 -0.34111,2.29798 0,1.31058 0.37701,2.35185 0.37701,1.04128 1.05923,1.77735 0.70017,0.71812 1.66963,1.11309 0.96946,0.37701 2.15436,0.37701 0.5745,0 1.20285,-0.0718 0.64631,-0.0898 1.27467,-0.23339 0.64631,-0.16158 1.25671,-0.35906 0.62836,-0.19749 1.16695,-0.43087 z"
         style="font-style:normal;font-variant:normal;font-weight:bold;font-stretch:normal;font-size:36.76778412px;font-family:Consolas;-inkscape-font-specification:'Consolas, Bold';font-variant-ligatures:normal;font-variant-caps:normal;font-variant-numeric:normal;font-feature-settings:normal;text-align:start;writing-mode:lr-tb;text-anchor:start;fill:#e9ddaf;stroke-width:0.49352795"
         id="path45"
         inkscape:connector-curvature="0" />
      <path
         d="m 186.36106,173.78441 -0.10772,-2.38775 q -0.5745,0.6104 -1.20286,1.13104 -0.62835,0.50268 -1.38238,0.8797 -0.75402,0.37701 -1.65168,0.57449 -0.87969,0.21544 -1.93892,0.21544 -1.40034,0 -2.45957,-0.41292 -1.05922,-0.41292 -1.77734,-1.14899 -0.71813,-0.73608 -1.09514,-1.77735 -0.35906,-1.04128 -0.35906,-2.29799 0,-1.29262 0.53859,-2.38775 0.55655,-1.09514 1.66963,-1.88507 1.13104,-0.78993 2.80067,-1.23876 1.68759,-0.44882 3.94967,-0.44882 h 2.38775 v -1.09514 q 0,-0.70016 -0.19748,-1.25671 -0.19749,-0.57449 -0.64631,-0.96946 -0.43087,-0.39497 -1.13104,-0.6104 -0.70017,-0.21544 -1.72349,-0.21544 -1.61577,0 -3.19564,0.37701 -1.56191,0.35906 -3.03406,1.02333 v -3.50084 q 1.31057,-0.52064 3.01611,-0.86175 1.72349,-0.34111 3.57265,-0.34111 2.02869,0 3.48288,0.39497 1.4542,0.37701 2.38776,1.14899 0.95151,0.77198 1.40033,1.93893 0.44883,1.14899 0.44883,2.69295 v 12.4594 z m -0.62836,-8.06091 h -2.675 q -1.11309,0 -1.88507,0.21544 -0.77198,0.21544 -1.25671,0.59245 -0.48473,0.37701 -0.71812,0.8797 -0.21544,0.48473 -0.21544,1.04127 0,1.11309 0.71812,1.70554 0.71813,0.5745 1.95688,0.5745 0.91561,0 1.90302,-0.66427 0.98742,-0.66426 2.17232,-1.90302 z"
         style="font-style:normal;font-variant:normal;font-weight:bold;font-stretch:normal;font-size:36.76778412px;font-family:Consolas;-inkscape-font-specification:'Consolas, Bold';font-variant-ligatures:normal;font-variant-caps:normal;font-variant-numeric:normal;font-feature-settings:normal;text-align:start;writing-mode:lr-tb;text-anchor:start;fill:#e9ddaf;stroke-width:0.49352795"
         id="path47"
         inkscape:connector-curvature="0" />
      <path
         d="m 206.64797,173.78441 -0.10772,-2.69295 q -0.5745,0.70016 -1.1849,1.27466 -0.6104,0.5745 -1.31057,0.98742 -0.70017,0.39496 -1.50805,0.6104 -0.78994,0.23339 -1.7594,0.23339 -1.61577,0 -2.87248,-0.64631 -1.25671,-0.64631 -2.11846,-1.83121 -0.84379,-1.20285 -1.29262,-2.90839 -0.44882,-1.70553 -0.44882,-3.80604 0,-2.51342 0.70017,-4.34463 0.71812,-1.84916 1.97483,-3.05201 1.25671,-1.22081 2.9802,-1.7953 1.72349,-0.59245 3.75218,-0.59245 0.68222,0 1.36443,0.0898 0.70017,0.0898 1.23876,0.23339 v -7.12735 h 4.38054 v 25.36762 z m -8.00705,-8.97651 q 0,1.50805 0.19748,2.58523 0.21544,1.05923 0.61041,1.74145 0.41292,0.68221 1.00537,1.00537 0.59245,0.3052 1.34647,0.3052 1.11309,0 2.11846,-0.89765 1.00537,-0.89766 2.13641,-2.45957 v -7.97114 q -0.52064,-0.19748 -1.29262,-0.32315 -0.75403,-0.12567 -1.52601,-0.12567 -1.05922,0 -1.90302,0.43087 -0.84379,0.43087 -1.45419,1.2208 -0.59245,0.78994 -0.9156,1.93893 -0.32316,1.13104 -0.32316,2.54933 z"
         style="font-style:normal;font-variant:normal;font-weight:bold;font-stretch:normal;font-size:36.76778412px;font-family:Consolas;-inkscape-font-specification:'Consolas, Bold';font-variant-ligatures:normal;font-variant-caps:normal;font-variant-numeric:normal;font-feature-settings:normal;text-align:start;writing-mode:lr-tb;text-anchor:start;fill:#e9ddaf;stroke-width:0.49352795"
         id="path49"
         inkscape:connector-curvature="0" />
      <path
         d="m 226.86307,173.78441 -0.10772,-2.38775 q -0.5745,0.6104 -1.20285,1.13104 -0.62836,0.50268 -1.38238,0.8797 -0.75403,0.37701 -1.65168,0.57449 -0.8797,0.21544 -1.93893,0.21544 -1.40033,0 -2.45956,-0.41292 -1.05923,-0.41292 -1.77735,-1.14899 -0.71812,-0.73608 -1.09513,-1.77735 -0.35906,-1.04128 -0.35906,-2.29799 0,-1.29262 0.53859,-2.38775 0.55654,-1.09514 1.66963,-1.88507 1.13104,-0.78993 2.80067,-1.23876 1.68758,-0.44882 3.94966,-0.44882 h 2.38775 v -1.09514 q 0,-0.70016 -0.19748,-1.25671 -0.19748,-0.57449 -0.64631,-0.96946 -0.43087,-0.39497 -1.13104,-0.6104 -0.70017,-0.21544 -1.72349,-0.21544 -1.61577,0 -3.19564,0.37701 -1.56191,0.35906 -3.03406,1.02333 v -3.50084 q 1.31057,-0.52064 3.01611,-0.86175 1.72349,-0.34111 3.57265,-0.34111 2.02869,0 3.48289,0.39497 1.45419,0.37701 2.38775,1.14899 0.95151,0.77198 1.40033,1.93893 0.44883,1.14899 0.44883,2.69295 v 12.4594 z m -0.62836,-8.06091 h -2.675 q -1.11308,0 -1.88506,0.21544 -0.77198,0.21544 -1.25671,0.59245 -0.48474,0.37701 -0.71813,0.8797 -0.21543,0.48473 -0.21543,1.04127 0,1.11309 0.71812,1.70554 0.71812,0.5745 1.95688,0.5745 0.9156,0 1.90302,-0.66427 0.98741,-0.66426 2.17231,-1.90302 z"
         style="font-style:normal;font-variant:normal;font-weight:bold;font-stretch:normal;font-size:36.76778412px;font-family:Consolas;-inkscape-font-specification:'Consolas, Bold';font-variant-ligatures:normal;font-variant-caps:normal;font-variant-numeric:normal;font-feature-settings:normal;text-align:start;writing-mode:lr-tb;text-anchor:start;fill:#e9ddaf;stroke-width:0.49352795"
         id="path51"
         inkscape:connector-curvature="0" />
      <path
         d="m 238.58639,147.60891 q 3.73423,0 5.56544,1.7953 1.83121,1.77735 1.83121,5.67315 v 3.01611 q 0,1.84916 0.80788,2.78272 0.82584,0.9156 2.74681,0.9156 h 1.149 v 3.39312 h -1.149 q -0.96946,0 -1.65167,0.21544 -0.68222,0.19748 -1.11309,0.62835 -0.41292,0.43088 -0.6104,1.11309 -0.17953,0.66426 -0.17953,1.59782 v 4.72164 q 0,1.84917 -0.43088,3.23155 -0.41292,1.40033 -1.31057,2.33389 -0.89765,0.93356 -2.29798,1.40034 -1.40034,0.48473 -3.35722,0.48473 h -1.50805 v -3.37517 h 1.14899 q 0.86175,0 1.54396,-0.19748 0.70017,-0.19749 1.20285,-0.68222 0.50269,-0.46678 0.77198,-1.23876 0.2693,-0.75402 0.2693,-1.88506 v -4.66779 q 0,-1.34648 0.21544,-2.29799 0.23338,-0.96946 0.68221,-1.59781 0.46678,-0.64631 1.1849,-0.98742 0.71812,-0.34111 1.68758,-0.48473 -1.92097,-0.23339 -2.85453,-1.50806 -0.9156,-1.29261 -0.9156,-3.94966 v -2.99815 q 0,-1.16695 -0.2693,-1.93893 -0.26929,-0.78993 -0.77198,-1.25671 -0.50268,-0.46678 -1.20285,-0.66426 -0.68221,-0.19749 -1.54396,-0.19749 h -1.14899 v -3.37516 z"
         style="font-style:normal;font-variant:normal;font-weight:bold;font-stretch:normal;font-size:36.76778412px;font-family:Consolas;-inkscape-font-specification:'Consolas, Bold';font-variant-ligatures:normal;font-variant-caps:normal;font-variant-numeric:normal;font-feature-settings:normal;text-align:start;writing-mode:lr-tb;text-anchor:start;fill:#e9ddaf;stroke-width:0.49352795"
         id="path53"
         inkscape:connector-curvature="0" />
    </g>
  </g>
</svg>
