<svg height="324" preserveAspectRatio="xMidYMid" viewBox="0 0 256 324" width="256" xmlns="http://www.w3.org/2000/svg"><g fill="#509ee3"><ellipse cx="19.39394" cy="82.75654" rx="19.393939" ry="19.703938"/><ellipse cx="19.39394" cy="137.927566" rx="19.393939" ry="19.703938"/><ellipse cx="73.69697" cy="82.75654" opacity=".2" rx="19.393939" ry="19.703938"/><ellipse cx="73.69697" cy="138.463513" rx="19.393939" ry="19.703938"/><ellipse cx="128" cy="82.75654" opacity=".2" rx="19.393939" ry="19.703938"/><ellipse cx="128" cy="19.703938" opacity=".2" rx="19.393939" ry="19.703938"/><ellipse cx="128" cy="138.463513" opacity=".2" rx="19.393939" ry="19.703938"/><ellipse cx="182.30303" cy="82.75654" opacity=".2" rx="19.393939" ry="19.703938"/><ellipse cx="236.60606" cy="82.75654" rx="19.393939" ry="19.703938"/><ellipse cx="182.30303" cy="138.463513" rx="19.393939" ry="19.703938"/><ellipse cx="236.60606" cy="138.463513" rx="19.393939" ry="19.703938"/><ellipse cx="19.39394" cy="193.098592" rx="19.393939" ry="19.703938"/><ellipse cx="73.69697" cy="193.634539" opacity=".2" rx="19.393939" ry="19.703938"/><ellipse cx="128" cy="193.634539" rx="19.393939" ry="19.703938"/><ellipse cx="182.30303" cy="193.634539" opacity=".2" rx="19.393939" ry="19.703938"/><ellipse cx="236.60606" cy="193.634539" rx="19.393939" ry="19.703938"/><ellipse cx="19.39394" cy="248.269618" rx="19.393939" ry="19.703938"/><ellipse cx="73.69697" cy="248.805565" opacity=".2" rx="19.393939" ry="19.703938"/><ellipse cx="128" cy="248.805565" opacity=".2" rx="19.393939" ry="19.703938"/><ellipse cx="128" cy="303.976591" opacity=".2" rx="19.393939" ry="19.703938"/><ellipse cx="182.30303" cy="248.805565" opacity=".2" rx="19.393939" ry="19.703938"/><ellipse cx="236.60606" cy="248.805565" rx="19.393939" ry="19.703938"/></g></svg>